PathFileType	4	(X/Y/Z)	SUB01_off_static_1_1707858583308
DataRate	CameraRate	NumFrames	NumMarkers	Units	OrigDataRate	OrigDataStartFrame	OrigNumFrames
150.00	150.00	       4	71	mm  	150.00	132	       150
Frame#	Time	CLAV			STRN			C7			T10			RSHO			LSHO			RUPA			REL			REM			RFRA			RWL			RWM			LUPA			LEL			LEM			LFRA			LWL			LWM			R.ASIS			L.ASIS			R.PSIS			L.PSIS			R.GTR			R.Knee			R.HF			R.TT			R.Ankle			R.Heel			R.MT1			R.MT5			L.GTR			L.Knee			L.HF			L.TT			L.Ankle			L.Heel			L.MT1			L.MT5			R.Knee.Medial			R.Ankle.Medial			R.MT2			L.Knee.Medial			L.Ankle.Medial			L.MT2			V_Mid_ASIS			V_Mid_PSIS			V_Pelvis_Origin			V_R.Hip_JC			V_R.Knee_JC_Static			V_R.TT			V_R.Ankle_JC			V_L.Hip_JC			V_Mid_Hip			V_R.MT2			V_R.Knee.Medial			V_R.Ankle.Medial			V_R.TT			V_L.Knee_JC_Static			V_L.TT			V_L.Ankle_JC			V_L.MT2			V_L.Knee.Medial			V_L.Ankle.Medial			V_R.Knee_JC2			V_R.Knee2			V_R.Knee_JC_Dynamic			V_R.Ankle_JC_Dynamic			V_L.Knee_JC_Dynamic			V_L.Ankle_JC_Dynamic			V_R.TT2			V_L.TT2			
		X1	Y1	Z1	X2	Y2	Z2	X3	Y3	Z3	X4	Y4	Z4	X5	Y5	Z5	X6	Y6	Z6	X7	Y7	Z7	X8	Y8	Z8	X9	Y9	Z9	X10	Y10	Z10	X11	Y11	Z11	X12	Y12	Z12	X13	Y13	Z13	X14	Y14	Z14	X15	Y15	Z15	X16	Y16	Z16	X17	Y17	Z17	X18	Y18	Z18	X19	Y19	Z19	X20	Y20	Z20	X21	Y21	Z21	X22	Y22	Z22	X23	Y23	Z23	X24	Y24	Z24	X25	Y25	Z25	X26	Y26	Z26	X27	Y27	Z27	X28	Y28	Z28	X29	Y29	Z29	X30	Y30	Z30	X31	Y31	Z31	X32	Y32	Z32	X33	Y33	Z33	X34	Y34	Z34	X35	Y35	Z35	X36	Y36	Z36	X37	Y37	Z37	X38	Y38	Z38	X39	Y39	Z39	X40	Y40	Z40	X41	Y41	Z41	X42	Y42	Z42	X43	Y43	Z43	X44	Y44	Z44	X45	Y45	Z45	X46	Y46	Z46	X47	Y47	Z47	X48	Y48	Z48	X49	Y49	Z49	X50	Y50	Z50	X51	Y51	Z51	X52	Y52	Z52	X53	Y53	Z53	X54	Y54	Z54	X55	Y55	Z55	X56	Y56	Z56	X57	Y57	Z57	X58	Y58	Z58	X59	Y59	Z59	X60	Y60	Z60	X61	Y61	Z61	X62	Y62	Z62	X63	Y63	Z63	X64	Y64	Z64	X65	Y65	Z65	X66	Y66	Z66	X67	Y67	Z67	X68	Y68	Z68	X69	Y69	Z69	X70	Y70	Z70	X71	Y71	Z71	
132	0.873333	971.584045	1389.550781	588.299622	976.729431	1229.923340	581.353455	839.027344	1488.443115	588.373718	742.897278	1233.705322	565.326050	842.214844	1480.359009	733.010620	875.165466	1495.155762	444.056213	877.056091	1461.253662	912.273499	909.908813	1471.246704	1006.119507	938.311157	1371.010620	1016.563538	945.062500	1471.131714	1173.107422	1019.889099	1432.297607	1252.229858	955.365662	1462.929932	1271.873047	944.314941	1478.859863	276.910431	997.905273	1489.856323	167.468124	1009.089233	1387.821411	153.132278	1028.204102	1476.933838	23.293179	1126.638062	1432.291138	-43.628166	1062.720459	1460.522339	-70.705757	962.845398	942.666382	678.886902	961.100708	935.050903	471.057068	762.040405	1010.185242	604.801147	767.380554	1008.957153	525.896973	859.865540	883.001892	753.293152	863.317993	512.232117	730.421387	864.628479	440.920959	732.310974	907.191162	397.688263	681.113525	781.759338	93.282593	724.972839	724.851990	49.874420	681.557678	927.089294	43.050907	676.590332	888.925293	30.975092	761.538635	875.229614	882.596680	393.827515	869.810913	497.146454	433.852448	875.655701	438.767090	436.792236	917.375061	393.171631	483.747284	781.349854	76.797737	462.552002	733.340942	53.736584	513.015259	942.545349	40.122604	497.935455	889.526978	33.111889	422.894714	870.766357	501.637512	600.901123	808.031006	94.606514	640.679382	928.936584	38.813122	715.967285	890.701843	499.460571	563.544983	817.676147	80.158913	546.272400	932.454773	38.776550	459.058014	0.000000	0.000000	0.000000	0.000000	0.000000	0.000000	0.000000	0.000000	0.000000	0.000000	0.000000	0.000000	0.000000	0.000000	0.000000	0.000000	0.000000	0.000000	0.000000	0.000000	0.000000	0.000000	0.000000	0.000000	0.000000	0.000000	0.000000	0.000000	0.000000	0.000000	0.000000	0.000000	0.000000	0.000000	0.000000	0.000000	0.000000	0.000000	0.000000	0.000000	0.000000	0.000000	0.000000	0.000000	0.000000	0.000000	0.000000	0.000000	0.000000	0.000000	0.000000	0.000000	0.000000	0.000000	0.000000	0.000000	0.000000	0.000000	0.000000	0.000000	0.000000	0.000000	0.000000	0.000000	0.000000	0.000000	0.000000	0.000000	0.000000	0.000000	0.000000	0.000000	0.000000	0.000000	0.000000	0.000000	0.000000	0.000000	0.000000	0.000000	0.000000	
133	0.880000	971.686646	1389.535522	588.311279	976.783630	1229.915405	581.351868	839.087769	1488.448364	588.370239	742.946045	1233.712769	565.326721	842.261658	1480.354492	733.005371	875.235901	1495.141968	444.048492	877.073242	1461.236450	912.271484	909.921448	1471.222168	1006.117126	938.325256	1370.986084	1016.562134	945.056335	1471.102783	1173.106567	1019.873718	1432.262939	1252.244385	955.346191	1462.903442	1271.871460	944.381531	1478.828613	276.902771	997.959534	1489.801514	167.449265	1009.105713	1387.765259	153.116699	1028.236206	1476.870117	23.275824	1126.638672	1432.209106	-43.669872	1062.721069	1460.457031	-70.726555	962.880371	942.653137	678.882813	961.122864	935.044617	471.051758	762.098145	1010.196228	604.816528	767.394775	1008.973877	525.903381	859.885010	883.005432	753.295532	863.310425	512.233582	730.421570	864.622925	440.922546	732.311462	907.186096	397.688812	681.114502	781.752747	93.283501	724.972900	724.850769	49.873177	681.557312	927.088989	43.051090	676.590271	888.935852	30.971035	761.529236	875.241272	882.598022	393.829956	869.818909	497.146179	433.851318	875.661255	438.766937	436.792480	917.380066	393.169739	483.745239	781.349670	76.798241	462.552124	733.341248	53.737106	513.015076	942.545349	40.123817	497.934174	889.526550	33.112167	422.894012	870.756653	501.636047	600.899658	808.030640	94.606689	640.679199	928.936035	38.813667	715.967773	890.723938	499.459991	563.541565	817.676086	80.159172	546.271912	932.454956	38.777012	459.057404	0.000000	0.000000	0.000000	0.000000	0.000000	0.000000	0.000000	0.000000	0.000000	0.000000	0.000000	0.000000	0.000000	0.000000	0.000000	0.000000	0.000000	0.000000	0.000000	0.000000	0.000000	0.000000	0.000000	0.000000	0.000000	0.000000	0.000000	0.000000	0.000000	0.000000	0.000000	0.000000	0.000000	0.000000	0.000000	0.000000	0.000000	0.000000	0.000000	0.000000	0.000000	0.000000	0.000000	0.000000	0.000000	0.000000	0.000000	0.000000	0.000000	0.000000	0.000000	0.000000	0.000000	0.000000	0.000000	0.000000	0.000000	0.000000	0.000000	0.000000	0.000000	0.000000	0.000000	0.000000	0.000000	0.000000	0.000000	0.000000	0.000000	0.000000	0.000000	0.000000	0.000000	0.000000	0.000000	0.000000	0.000000	0.000000	0.000000	0.000000	0.000000	
134	0.886667	971.778870	1389.525024	588.321594	976.840271	1229.909790	581.349182	839.145447	1488.455811	588.365051	742.996155	1233.721313	565.325012	842.305969	1480.352661	732.997131	875.306274	1495.130005	444.038818	877.090881	1461.222168	912.265991	909.933594	1471.197998	1006.111023	938.327942	1370.959106	1016.559143	945.050781	1471.074341	1173.103516	1019.859680	1432.225952	1252.254028	955.330505	1462.873779	1271.869629	944.446411	1478.792969	276.890198	998.012939	1489.740967	167.425415	1009.131165	1387.702148	153.105728	1028.260132	1476.788696	23.251905	1126.633057	1432.104492	-43.716614	1062.714478	1460.366333	-70.752739	962.914795	942.642761	678.880249	961.146423	935.039795	471.048798	762.148499	1010.208496	604.830444	767.409241	1008.991455	525.909180	859.901489	883.010742	753.297363	863.299194	512.236694	730.422668	864.614014	440.925568	732.312927	907.178772	397.691071	681.117188	781.745789	93.285049	724.972839	724.849426	49.872314	681.556763	927.088623	43.051559	676.590149	888.946533	30.966806	761.519714	875.254883	882.600342	393.833160	869.823547	497.147430	433.850525	875.664063	438.768127	436.792938	917.382813	393.169037	483.743195	781.349426	76.799538	462.551819	733.341370	53.738415	513.014343	942.545349	40.125080	497.932770	889.525940	33.112370	422.893097	870.745300	501.636566	600.899353	808.029968	94.607819	640.679260	928.935303	38.814369	715.968384	890.742554	499.459381	563.539307	817.675964	80.160233	546.270996	932.454956	38.777485	459.056519	0.000000	0.000000	0.000000	0.000000	0.000000	0.000000	0.000000	0.000000	0.000000	0.000000	0.000000	0.000000	0.000000	0.000000	0.000000	0.000000	0.000000	0.000000	0.000000	0.000000	0.000000	0.000000	0.000000	0.000000	0.000000	0.000000	0.000000	0.000000	0.000000	0.000000	0.000000	0.000000	0.000000	0.000000	0.000000	0.000000	0.000000	0.000000	0.000000	0.000000	0.000000	0.000000	0.000000	0.000000	0.000000	0.000000	0.000000	0.000000	0.000000	0.000000	0.000000	0.000000	0.000000	0.000000	0.000000	0.000000	0.000000	0.000000	0.000000	0.000000	0.000000	0.000000	0.000000	0.000000	0.000000	0.000000	0.000000	0.000000	0.000000	0.000000	0.000000	0.000000	0.000000	0.000000	0.000000	0.000000	0.000000	0.000000	0.000000	0.000000	0.000000	
135	0.893333	971.857056	1389.519897	588.329651	976.899170	1229.906128	581.346130	839.201538	1488.464844	588.357788	743.047424	1233.731079	565.321411	842.348389	1480.353760	732.985840	875.376282	1495.120117	444.027313	877.109131	1461.211670	912.256836	909.944519	1471.175537	1006.101440	938.319336	1370.931152	1016.554688	945.045349	1471.047119	1173.098999	1019.846436	1432.187744	1252.258789	955.317688	1462.841675	1271.867920	944.508667	1478.752808	276.872345	998.065063	1489.674194	167.396576	1009.163696	1387.631470	153.098618	1028.275146	1476.688843	23.220964	1126.620117	1431.975220	-43.768475	1062.700073	1460.249268	-70.784897	962.947937	942.635864	678.879395	961.171448	935.036377	471.048340	762.192200	1010.221924	604.842529	767.419678	1009.010925	525.913269	859.915161	883.017639	753.298706	863.285156	512.241272	730.424683	864.602295	440.929871	732.315430	907.169495	397.694855	681.121521	781.738770	93.287170	724.972717	724.848022	49.871933	681.556030	927.088196	43.052277	676.590210	888.956177	30.962843	761.511169	875.270935	882.603516	393.837036	869.824951	497.150177	433.850250	875.664246	438.770569	436.793671	917.383484	393.169556	483.741364	781.349060	76.801666	462.551178	733.341431	53.740520	513.013184	942.545166	40.126316	497.931366	889.525146	33.112415	422.891968	870.732971	501.639038	600.900391	808.029053	94.609879	640.679626	928.934387	38.815147	715.969177	890.757202	499.458801	563.538635	817.675781	80.162086	546.269653	932.454712	38.777916	459.055420	0.000000	0.000000	0.000000	0.000000	0.000000	0.000000	0.000000	0.000000	0.000000	0.000000	0.000000	0.000000	0.000000	0.000000	0.000000	0.000000	0.000000	0.000000	0.000000	0.000000	0.000000	0.000000	0.000000	0.000000	0.000000	0.000000	0.000000	0.000000	0.000000	0.000000	0.000000	0.000000	0.000000	0.000000	0.000000	0.000000	0.000000	0.000000	0.000000	0.000000	0.000000	0.000000	0.000000	0.000000	0.000000	0.000000	0.000000	0.000000	0.000000	0.000000	0.000000	0.000000	0.000000	0.000000	0.000000	0.000000	0.000000	0.000000	0.000000	0.000000	0.000000	0.000000	0.000000	0.000000	0.000000	0.000000	0.000000	0.000000	0.000000	0.000000	0.000000	0.000000	0.000000	0.000000	0.000000	0.000000	0.000000	0.000000	0.000000	0.000000	0.000000	
